/* XPM */
static char *_ef2f5db7c874428ed04d5fb35cb4743XvGZ2lgErvDHZ373[] = {
/* columns rows colors chars-per-pixel */
"30 30 7 1 ",
"  c #D1A9BF",
". c #D5ABC0",
"X c #DCAEC1",
"o c #DBAEC1",
"O c #D4ABC0",
"+ c #D4AAC0",
"@ c white",
/* pixels */
"              .XXXXXXXXXXXXXoO",
"             .oXXXXXXXXXXXXo. ",
"            .oXXXXXXXXXXXXo.  ",
"           .oXXXXXXXXXXXXo.   ",
"          .oXXXXXXXXXXXXo.    ",
"         .oXXXXXXXXXXXXo.     ",
"        .oXXXXXXXXXXXXo.      ",
"       .oXXXXXXXXXXXXo.       ",
"      .oXXXXXXXXXXXXo.        ",
"     .oXXXXXXXXXXXXo.         ",
"    .oXXXXXXXXXXXXo.          ",
"   .oXXXXXXXXXXXXo.           ",
"  .oXXXXXXXXXXXXo.            ",
" .oXXXXXXXXXXXXo.             ",
".oXXXXXXXXXXXXo.              ",
"XXXXXXXXXXXXXo.              +",
"XXXXXXXXXXXXo.              .o",
"XXXXXXXXXXXo.              .oX",
"XXXXXXXXXXo.              .oXX",
"XXXXXXXXXo.              .oXXX",
"XXXXXXXXo.              .oXXXX",
"XXXXXXXo.              .oXXXXX",
"XXXXXXo.              .oXXXXXX",
"XXXXXo.              .oXXXXXXX",
"XXXXo.              .oXXXXXXXX",
"XXXo.              .oXXXXXXXXX",
"XXo.              .oXXXXXXXXXX",
"Xo.              .oXXXXXXXXXXX",
"o.              .oXXXXXXXXXXXX",
"O              +oXXXXXXXXXXXXX"
};
