/* XPM */
static char *e87598c8897744b4bf00e899f03fed69NZ8NWsISzb8VrENn[] = {
/* columns rows colors chars-per-pixel */
"30 30 205 2 ",
"   c #D1A9BF",
".  c #1B0801",
"X  c #230700",
"o  c #460E00",
"O  c #4A1303",
"+  c #471806",
"@  c #541B07",
"#  c #551C08",
"$  c #5A1C08",
"%  c #591F06",
"&  c #4C1E18",
"*  c #641F0A",
"=  c #53240B",
"-  c #57240B",
";  c #5F3B0E",
":  c #452B14",
">  c #482A19",
",  c #562C10",
"<  c #52261C",
"1  c #4F351D",
"2  c #6C230D",
"3  c #672A09",
"4  c #73250E",
"5  c #703305",
"6  c #792810",
"7  c #6B3012",
"8  c #7B3213",
"9  c #412E2A",
"0  c #4E3721",
"q  c #463221",
"w  c #523A24",
"e  c #62362C",
"r  c #65392A",
"t  c #673F31",
"y  c #79400C",
"u  c #5F4527",
"i  c #5B4736",
"p  c #634B38",
"a  c #765835",
"s  c #6D4933",
"d  c #7C5B41",
"f  c #7D624B",
"g  c #833300",
"h  c #803E0C",
"j  c #8B2F13",
"k  c #812A11",
"l  c #853213",
"z  c #923414",
"x  c #983A16",
"c  c #862F0C",
"v  c #934305",
"b  c #964B0C",
"n  c #984806",
"m  c #984E10",
"M  c #94451D",
"N  c #9F5010",
"B  c #84440D",
"V  c #A55807",
"C  c #A04F10",
"Z  c #AF5B11",
"A  c #B35A1E",
"S  c #B3640D",
"D  c #B76815",
"F  c #865134",
"G  c #A65022",
"H  c #996A36",
"J  c #B66923",
"K  c #B57529",
"L  c #B97A34",
"P  c #C26F0A",
"I  c #CC750C",
"U  c #CE7D1B",
"Y  c #CA7413",
"T  c #C26917",
"R  c #CF7F24",
"E  c #C47728",
"W  c #CB7E32",
"Q  c #855D4E",
"!  c #916E49",
"~  c #97744B",
"^  c #866F5A",
"/  c #9B705C",
"(  c #A77C4B",
")  c #B37E40",
"_  c #8B7363",
"`  c #A57B68",
"'  c #D7831A",
"]  c #CC842B",
"[  c #D18A2E",
"{  c #D58627",
"}  c #D3912F",
"|  c #D28B30",
" . c #CD8435",
".. c #E39326",
"X. c #E3922B",
"o. c #ED9C35",
"O. c #E19B39",
"+. c #E99A37",
"@. c #DBA13B",
"#. c #ECA13C",
"$. c #F2A438",
"%. c #B58748",
"&. c #B4885C",
"*. c #B48656",
"=. c #B38365",
"-. c #BC9267",
";. c #B99C75",
":. c #A18768",
">. c #C98E59",
",. c #ED9E4C",
"<. c #D2A046",
"1. c #E8A348",
"2. c #F4AE4B",
"3. c #F1A846",
"4. c #EBB649",
"5. c #EAB547",
"6. c #F5B14E",
"7. c #FAB54E",
"8. c #E9B653",
"9. c #F5B453",
"0. c #F6BA5B",
"q. c #F7BA58",
"w. c #C49B65",
"e. c #CA966F",
"r. c #D5A868",
"t. c #CAA278",
"y. c #DCB07F",
"u. c #D6AB78",
"i. c #E0BA7D",
"p. c #FBC15C",
"a. c #F4CB5F",
"s. c #EFC160",
"d. c #FAC463",
"f. c #FBC867",
"g. c #FCCB6A",
"h. c #F6C469",
"j. c #FED06E",
"k. c #FBCC75",
"l. c #FED474",
"z. c #FEDA7A",
"x. c #FEE079",
"c. c #978981",
"v. c #A99686",
"b. c #AF8A84",
"n. c #B0ACAB",
"m. c #B6B1AA",
"M. c #D59C83",
"N. c #C9A285",
"B. c #CAAC8D",
"V. c #D7AA89",
"C. c #D3B58B",
"Z. c #D9B889",
"A. c #CFB597",
"S. c #D1BA9C",
"D. c #DBB892",
"F. c #CFB989",
"G. c #E0BF8D",
"H. c #CBB4A7",
"J. c #F2BEA1",
"K. c #E0C28B",
"L. c #E6C88D",
"P. c #FBD786",
"I. c #E4C699",
"U. c #FFE290",
"Y. c #D7C3A7",
"T. c #E5CBAB",
"R. c #E5C6A3",
"E. c #F2C2A5",
"W. c #E6CBB8",
"Q. c #F3CCBB",
"!. c #F2C8B4",
"~. c #EDD8B3",
"^. c #ECD3B7",
"/. c #F3D8B8",
"(. c #EED2A8",
"). c #F4E0BA",
"_. c #D7CBC9",
"`. c #F6CDC5",
"'. c #ECD4CC",
"]. c #ECDAC6",
"[. c #F4D2C3",
"{. c #F7D5CD",
"}. c #F4DACC",
"|. c #F9D7CA",
" X c #EED6D0",
".X c #F8D9D4",
"XX c #F8D8D5",
"oX c #EACFC9",
"OX c #F8EBCD",
"+X c #FDF0CB",
"@X c #F9EBD4",
"#X c #F3E4DB",
"$X c #F7EBDC",
"%X c #F6E9D9",
"&X c #FBF3DD",
"*X c #FFF4D6",
"=X c #FBEFE4",
"-X c #F9EAE4",
";X c #FFFAE1",
":X c #FCF5EA",
">X c #FEFAEE",
",X c #FCF6E3",
"<X c #FCF5F4",
"1X c #FFFDF4",
"2X c #FFFFFE",
/* pixels */
"                                                            ",
"                                                            ",
"                    n b b m m m m m n n                     ",
"                n S ..$.2.9.2.9.9.q.o.R S x                 ",
"              n Y $.6.9.9.9.h.6.9.f.9.2.o.T v               ",
"            3 S $.2.0.9.9.9.P.9.6.9.0.0.0.o.Z 5             ",
"          , B ] 7.0.0.0.6.6.6.9.0.9.9.0.P.2.R l ,           ",
"        a H D 7.g.z.l.g.f.0.9.9.f.6.2.d.2.2.X.V H a         ",
"      ! F.B.C p.l.l.k.l.z.l.g.0.f.3.3.p.2.9.$.n B.F.~       ",
"      ;.*X` g ..q.P.k.U.z.z.z.g.l.#.,.0.3.q...g / OX;.      ",
"    u L.^.B.J 5.O.W K K  .O.O.#.#.X.{ ] D ] @.; c.S.K.u     ",
"    ~ F.H.F 1.8.A c 3 m <.4.4.4.4.4.5.5.<.K A 7 9 m.C.~     ",
"  : ;.#Xb.+ M M j z 6 z M E ] z.+Xx.x.s.J l * 2 X b.-X;.:   ",
"  s ~.`.<Xb.o $ 2 j 6 j z x x W g.d.8.J z k * O . n.{.^.t   ",
"  =./.!.2XH.o + + @ @ 2 * 4 6 z E <.8 4 @ @ # o :.:X`.).=.  ",
"e ~.E.2X2XS.D { y + $ # + # $ O + = # @ X # - o -.>X2XE.~.e ",
"r ).E.<X2XT.} 9.q.} V 3 = 7 7 - = , 3 = 5 V P V w.$X<XJ./.r ",
"w Y.T.`.<X1Xy.' 3.6.9.4.9.9.6.#.#.3.o.X.' I V %.D.Q.`.M.S.e ",
"& < ` '.{.<X&Xr.] O.P.l.l.f.d.6.6.2.$.X.I S ) K.Q. X_.Q < & ",
"  > ( w.oX}.&XOXt.L ] U ] | [ R R [ U Y K %.K.Q. X;.F ~ :   ",
"    w D.C.'..X<X>XOXt.&.&.&.&.&.*.%.) >.L.(.Q.'.N.D.G.0     ",
"    i Y.OXR.[..X<X2X2X2X2X2X2X2X1X1X;X;X+X|.'.N.I.2XS.0     ",
"      f ,X=XT.^.{.=X1X>X1X>X>X1X1X1X:X.XXXW.N.I.1X:Xf       ",
"      u B.2X$XR.^.[.@X&X&X&X&X&X&XQ.[.}.^.D.W.:X1XB.w       ",
"        p v.2X,XC.W.{.:X1X<X1X`.`.-XXXV.C.$X2X2Xv.i         ",
"          q ^ S.].C.D.V.^.[.V.E.I.Z.B.].#X>XS.^ :           ",
"              w p d ) u.>.>.V.r.-.}.].Y._ i u               ",
"                    : t t.G.a r 1 i i w                     ",
"                        e t                                 ",
"                                                            "
};
