/* XPM */
static char *_5cffb9ae6f14e60829b411ec27cb091L2XJs62KCDP87voC[] = {
/* columns rows colors chars-per-pixel */
"30 30 248 2 ",
"   c #D1A9BF",
".  c #2A283A",
"X  c #2B2A3B",
"o  c #45342A",
"O  c #503E29",
"+  c #533F28",
"@  c #49422E",
"#  c #58452A",
"$  c #58452B",
"%  c #5C4628",
"&  c #595132",
"*  c #595036",
"=  c #614726",
"-  c #624726",
";  c #614827",
":  c #624827",
">  c #634927",
",  c #664A25",
"<  c #634C28",
"1  c #6B5025",
"2  c #695028",
"3  c #7A5A24",
"4  c #635532",
"5  c #695F33",
"6  c #65533C",
"7  c #66553F",
"8  c #635C39",
"9  c #645C39",
"0  c #71683E",
"q  c #353346",
"w  c #38374B",
"e  c #38384B",
"r  c #3A3A4D",
"t  c #3B3A4D",
"y  c #595343",
"u  c #5E594E",
"i  c #444456",
"p  c #454559",
"a  c #47485E",
"s  c #494A59",
"d  c #695741",
"f  c #6D5B45",
"g  c #665B51",
"h  c #68644F",
"j  c #6E684D",
"k  c #736943",
"l  c #726049",
"z  c #746C48",
"x  c #6B6850",
"c  c #6B6851",
"v  c #71655B",
"b  c #777155",
"n  c #4D4F64",
"m  c #515162",
"M  c #575562",
"N  c #57596D",
"B  c #5F6170",
"V  c #696761",
"C  c #6C6B62",
"Z  c #6E6B65",
"A  c #6B6A6D",
"S  c #6D6D6E",
"D  c #706D69",
"F  c #7D796A",
"G  c #6F6D74",
"H  c #6F6D76",
"J  c #636679",
"K  c #7A787C",
"L  c #9D6F1F",
"P  c #A7761E",
"I  c #815F24",
"U  c #836423",
"Y  c #957C2F",
"T  c #817434",
"R  c #857937",
"E  c #8A7D35",
"W  c #8A763A",
"Q  c #927E33",
"!  c #A67C28",
"~  c #A67C29",
"^  c #857B46",
"/  c #807950",
"(  c #837C53",
")  c #847C54",
"_  c #87745A",
"`  c #847D5A",
"'  c #847E5B",
"]  c #8B795F",
"[  c #847F63",
"{  c #8F7D62",
"}  c #BE891C",
"|  c #BF8A1D",
" . c #96863C",
".. c #AD8A26",
"X. c #A8932F",
"o. c #B6972A",
"O. c #B09D3F",
"+. c #C08A1C",
"@. c #CD9F22",
"#. c #CCAB2E",
"$. c #DEB527",
"%. c #D5B32B",
"&. c #D4B22C",
"*. c #D6B52E",
"=. c #D6B52F",
"-. c #D9B52D",
";. c #D9B62D",
":. c #D8B62E",
">. c #D8B72E",
",. c #D0A834",
"<. c #D3B137",
"1. c #DAB339",
"2. c #E3CA39",
"3. c #E4CE3D",
"4. c #E7CE3F",
"5. c #88804B",
"6. c #89804B",
"7. c #A19444",
"8. c #A29545",
"9. c #A19549",
"0. c #A29649",
"q. c #A29757",
"w. c #B2A042",
"e. c #B6A447",
"r. c #B3A54A",
"t. c #B2A44C",
"y. c #B2A44D",
"u. c #B2A554",
"i. c #B6A851",
"p. c #B3A75B",
"a. c #85816E",
"s. c #928065",
"d. c #968367",
"f. c #868274",
"g. c #BEB072",
"h. c #C0AD48",
"j. c #C8AF48",
"k. c #D2AE41",
"l. c #D1AE42",
"z. c #D3AE42",
"x. c #D0AB4C",
"c. c #D3B642",
"v. c #DDB641",
"b. c #DEB642",
"n. c #DEB743",
"m. c #DDB745",
"M. c #DEB744",
"N. c #D7B942",
"B. c #DDBE41",
"V. c #D9BC44",
"C. c #D1AD52",
"Z. c #CCBE5D",
"A. c #D3B850",
"S. c #D7B65F",
"D. c #D5BA5B",
"F. c #D9BB72",
"G. c #DEC042",
"H. c #D7C548",
"J. c #D4C34C",
"K. c #DBCB57",
"L. c #D8C85A",
"P. c #E0C243",
"I. c #E0C246",
"U. c #E5CE43",
"Y. c #E6CE44",
"T. c #EAD446",
"R. c #E5CE57",
"E. c #E9D753",
"W. c #D8CA62",
"Q. c #D8CA63",
"!. c #E8CF6D",
"~. c #E9D461",
"^. c #EDDD62",
"/. c #E8D06F",
"(. c #EFE068",
"). c #EFE06B",
"_. c #F0E168",
"`. c #F0E26E",
"'. c #F1E373",
"]. c #F1E472",
"[. c #F2E576",
"{. c #F2E577",
"}. c #F3E676",
"|. c #F3E578",
" X c #F4E77D",
".X c #6F7280",
"XX c #767783",
"oX c #727586",
"OX c #787882",
"+X c #777D88",
"@X c #808491",
"#X c #838795",
"$X c #848794",
"%X c #858895",
"&X c #878A96",
"*X c #888C98",
"=X c #8B8E9A",
"-X c #8D919D",
";X c #A8A386",
":X c #9196A1",
">X c #9397A2",
",X c #959AA5",
"<X c #9B9BA3",
"1X c #989CA7",
"2X c #999EA9",
"3X c #9BA0AA",
"4X c #9CA1AB",
"5X c #A1A6B0",
"6X c #A1A8B1",
"7X c #A6ACB6",
"8X c #AFB7BF",
"9X c #D6CD8C",
"0X c #DDD491",
"qX c #DDD59B",
"wX c #F5EA81",
"eX c #F6EA82",
"rX c #F6EA84",
"tX c #F6EA86",
"yX c #F6EB87",
"uX c #F7EC84",
"iX c #F7EB89",
"pX c #F7EC89",
"aX c #F7EC8A",
"sX c #F7EC8B",
"dX c #F7ED8B",
"fX c #F7EE8A",
"gX c #F8EE8A",
"hX c #F8EE8B",
"jX c #F9EF92",
"kX c #F8EE98",
"lX c #FAF1A0",
"zX c #F9F1A6",
"xX c #FDF6AF",
"cX c #FAF4B3",
"vX c #FBF6BF",
"bX c #FCF6BF",
"nX c #B6BCC5",
"mX c #BBC4CA",
"MX c #C4CBD3",
"NX c #C4CED4",
"BX c #CAD4D9",
"VX c #CBD5DA",
"CX c #D1D8DF",
"ZX c #FDFAD6",
"AX c #DBE2E7",
"SX c #E1E9ED",
"DX c #E7EDEF",
"FX c #FEFCEC",
/* pixels */
"                                                            ",
"                                                            ",
"                                                            ",
"                                                            ",
"                                                            ",
"                                                            ",
"                                                            ",
"                                                            ",
"                                                            ",
"                4 j c j c c j c c c C S D H                 ",
"          Z k O Y e.l.l.z.l.l.l.l.z.S.F.g.;Xy b G           ",
"        K 0Xw.< 3 o.1.v.v.v.v.v.v.n.n.m.h.R 5 i.qXK         ",
"        a.p.  o +.4.}. XhXhXhXhXaXvXcXZXxXL.@   u.[         ",
"        ' 0.    } Y.|.aXhXaXaXaXaXkXzXFXbXW.    q.f.        ",
"        ( 7.    } Y.tXhXaXaXaXaXaXaXaXkXlXW.    0.'         ",
"        ) 7.    } Y.tXtXaXaXaXaXaXaXaXaXjXW.    7.(         ",
"        / Z.0 O +.2.`.'.).tXaXhXhXaXaX XeXJ.& z Z./         ",
"          y.O.U L $.3.E.^.`.'.[.[.[.|.(.T.X.E r.y.          ",
"                , P @.%.*.:.:.:.:.*.*.&...2                 ",
"                    - > - # ! ! # - : -                     ",
"                          * x.C.u                           ",
"                        1 j././.9XF                         ",
"                        % Q ,.<. .9                         ",
"                          T R.~.^                           ",
"                    9 h 6.H._.uXK.5.V A                     ",
"                  U #.c.V.B.B.I.P.N.A.D.W                   ",
"              X e v d.l 7 ] { d f s._ 6 g OXM               ",
"              . p 7XSXoXn NXCXN J AXnXa #XDX<X              ",
"              s @X>X4X=X%X1X2X%X=X2X>X@X-X5XOX              ",
"              +XBX.Xq 6XNXm i mX8Xr J BX:Xe t               "
};
