/* XPM */
static char *_2006551a20d43b8a1a0444b2080b6ebk1HUK9PMSYLwD1E8[] = {
/* columns rows colors chars-per-pixel */
"32 32 12 1 ",
"  c None",
". c #211F30",
"X c #A14744",
"o c #B96E54",
"O c #CF9E6E",
"+ c #F2BC7E",
"@ c #2FACDA",
"# c #6CD9F1",
"$ c #E4C997",
"% c #FBDFB1",
"& c #ACF7FA",
"* c white",
/* pixels */
"                                ",
"                                ",
"                                ",
"                                ",
"                                ",
"                                ",
"            ...........         ",
"          ..&&#######&&.        ",
"         .&############&.       ",
"        .&##@............       ",
"       .&##@.oXOOOO$O$$OO.      ",
"       .&#@.oXOOOOOO$O$$OO.     ",
"      .###@.oXOOOOOOO$O$$O.     ",
"      ......oXOOOOOOOO$O$$.     ",
"     .oO$Oo.oXOOOOOOOOO$O$.     ",
"     .......oXOOOOOOOOOO$O.     ",
"      .@@@@.oXOOOOOOOOOOO$.     ",
"      .@##@.oXoOOOXXXXXOOo.     ",
"      ..###@.oXoooooooooo..     ",
"     .%+..##@............++.    ",
"     .%+.####@@@@@@@@@@@..+.    ",
"     .+.@#######****&#..@.+.    ",
"      .@@@#############.@@.     ",
"       .....#####**&###...      ",
"         .@############.        ",
"         .@#######&####.        ",
"         .@####.@######.        ",
"          .@@##....@###@.       ",
"           .@##.   ..###.       ",
"            ...    .@###.       ",
"                    .@##.       ",
"                     ...        "
};

